<?xml version="1.0" encoding="UTF-8" standalone="no"?>
<!-- Created with Inkscape (http://www.inkscape.org/) -->

<svg
   width="279mm"
   height="210mm"
   viewBox="0 0 279 210"
   version="1.1"
   id="svg5"
   sodipodi:docname="NaMa.svg"
   inkscape:version="1.1 (c68e22c387, 2021-05-23)"
   xmlns:inkscape="http://www.inkscape.org/namespaces/inkscape"
   xmlns:sodipodi="http://sodipodi.sourceforge.net/DTD/sodipodi-0.dtd"
   xmlns="http://www.w3.org/2000/svg"
   xmlns:svg="http://www.w3.org/2000/svg">
  <sodipodi:namedview
     id="namedview7"
     pagecolor="#ffffff"
     bordercolor="#040404"
     borderopacity="1"
     inkscape:pageshadow="0"
     inkscape:pageopacity="0"
     inkscape:pagecheckerboard="1"
     inkscape:document-units="mm"
     showgrid="false"
     inkscape:snap-grids="true"
     inkscape:zoom="0.70555556"
     inkscape:cx="520.86614"
     inkscape:cy="397.55906"
     inkscape:window-width="1366"
     inkscape:window-height="745"
     inkscape:window-x="-8"
     inkscape:window-y="-8"
     inkscape:window-maximized="1"
     inkscape:current-layer="layer1" />
  <defs
     id="defs2" />
  <g
     inkscape:label="Layer 1"
     inkscape:groupmode="layer"
     id="layer1">
    <text
       xml:space="preserve"
       style="font-style:normal;font-variant:normal;font-weight:normal;font-stretch:normal;font-size:45.5201px;line-height:1.25;font-family:Calibri;-inkscape-font-specification:'Calibri, Normal';font-variant-ligatures:normal;font-variant-caps:normal;font-variant-numeric:normal;font-variant-east-asian:normal;fill:#f43c01;fill-opacity:0.972549;stroke:none;stroke-width:1.138"
       x="62.736679"
       y="129.69542"
       id="text3039"
       inkscape:export-filename="C:\Users\belja\OneDrive\Desktop\New folder\NaMa.png"
       inkscape:export-xdpi="96"
       inkscape:export-ydpi="96"><tspan
         sodipodi:role="line"
         id="tspan3037"
         style="font-style:normal;font-variant:normal;font-weight:normal;font-stretch:normal;font-size:45.5201px;font-family:Calibri;-inkscape-font-specification:'Calibri, Normal';font-variant-ligatures:normal;font-variant-caps:normal;font-variant-numeric:normal;font-variant-east-asian:normal;fill:#f43c01;fill-opacity:0.972549;stroke-width:1.138"
         x="62.736679"
         y="129.69542">NaM</tspan></text>
    <circle
       style="fill:#f33c02;fill-opacity:0.972549;stroke-width:0.588282;stroke-dashoffset:7.62353"
       id="path24255"
       cx="165.48097"
       cy="117.19408"
       r="13.09861"
       inkscape:export-filename="C:\Users\belja\OneDrive\Desktop\New folder\NaMa.png"
       inkscape:export-xdpi="96"
       inkscape:export-ydpi="96" />
    <path
       id="path24640"
       style="fill:#000000;stroke-width:0.753957;stroke-dashoffset:7.62353"
       d="m -143.37493,-68.249752 a 39.999999,39.999999 0 0 0 -0.48317,0.01809 v 39.947952 h 40.48125 a 39.999999,39.999999 0 0 0 -39.99808,-39.966042 z m -0.89969,79.966172 a 39.999999,39.999999 0 0 0 0.89969,0.0336 39.999999,39.999999 0 0 0 1.53221,-0.0336 h -2.01538 z" />
    <path
       style="fill:#3d3bde;fill-opacity:1;stroke-width:1.31677;stroke-dashoffset:7.62353"
       d="m 216.40678,107.94898 -36.8652,13.9412 a 15.063401,15.063401 0 0 1 -11.8889,10.55588 h 53.32174 a 69.859259,69.859259 0 0 0 -4.56764,-24.49708 z"
       id="path66210"
       inkscape:export-filename="C:\Users\belja\OneDrive\Desktop\New folder\NaMa.png"
       inkscape:export-xdpi="96"
       inkscape:export-ydpi="96" />
    <path
       style="fill:#fc9c09;fill-opacity:1;stroke-width:1.31677;stroke-dashoffset:7.62353"
       d="m 202.44479,85.271349 -25.35807,23.394231 a 15.063401,15.063401 0 0 1 3.09834,8.93946 15.063401,15.063401 0 0 1 -0.34295,2.42146 l 35.97261,-13.60368 A 69.859259,69.859259 0 0 0 202.44479,85.271349 Z"
       id="path66208"
       inkscape:export-filename="C:\Users\belja\OneDrive\Desktop\New folder\NaMa.png"
       inkscape:export-xdpi="96"
       inkscape:export-ydpi="96" />
    <path
       style="fill:#1b9de7;fill-opacity:1;stroke-width:1.31677;stroke-dashoffset:7.62353"
       d="M 179.26991,68.582864 164.44422,102.5898 a 15.063401,15.063401 0 0 1 0.6769,-0.0479 15.063401,15.063401 0 0 1 10.96471,4.81948 L 201.38074,84.024935 A 69.859259,69.859259 0 0 0 179.26991,68.582831 Z"
       id="path66206"
       inkscape:export-filename="C:\Users\belja\OneDrive\Desktop\New folder\NaMa.png"
       inkscape:export-xdpi="96"
       inkscape:export-ydpi="96" />
    <path
       style="fill:#dd0606;fill-opacity:1;stroke-width:1.31677;stroke-dashoffset:7.62353"
       d="m 151.11853,62.646089 a 69.859259,69.859259 0 0 0 -0.84387,0.03159 v 52.425571 a 15.063401,15.063401 0 0 1 12.29685,-12.31759 l 15.18397,-34.826439 a 69.859259,69.859259 0 0 0 -26.63695,-5.313132 z"
       id="path24640-1"
       inkscape:export-filename="C:\Users\belja\OneDrive\Desktop\New folder\NaMa.png"
       inkscape:export-xdpi="96"
       inkscape:export-ydpi="96" />
    <path
       id="path76248"
       style="fill:#f43c01;fill-opacity:0.972549;stroke-width:0.362052;stroke-dashoffset:7.62353"
       inkscape:transform-center-x="-0.034217269"
       inkscape:transform-center-y="1.4854932"
       d="m 110.30205,111.4989 5.35158,-9.03196 -2.07689,-0.0236 -3.20233,5.40488 -3.07939,-5.4756 -2.1389,-0.0243 z"
       inkscape:export-filename="C:\Users\belja\OneDrive\Desktop\New folder\NaMa.png"
       inkscape:export-xdpi="96"
       inkscape:export-ydpi="96" />
    <text
       xml:space="preserve"
       style="font-style:normal;font-variant:normal;font-weight:normal;font-stretch:normal;font-size:26.0639px;line-height:1.25;font-family:Calibri;-inkscape-font-specification:'Calibri, Normal';font-variant-ligatures:normal;font-variant-caps:normal;font-variant-numeric:normal;font-variant-east-asian:normal;fill:#f43c01;fill-opacity:0.972549;stroke:none;stroke-width:0.651598"
       x="-139.74989"
       y="54.824574"
       id="text3039-8"><tspan
         sodipodi:role="line"
         id="tspan3037-8"
         style="font-style:normal;font-variant:normal;font-weight:normal;font-stretch:normal;font-size:26.0639px;font-family:Calibri;-inkscape-font-specification:'Calibri, Normal';font-variant-ligatures:normal;font-variant-caps:normal;font-variant-numeric:normal;font-variant-east-asian:normal;fill:#f43c01;fill-opacity:0.972549;stroke-width:0.651598"
         x="-139.74989"
         y="54.824574">NaM</tspan></text>
    <circle
       style="fill:#f33c02;fill-opacity:0.972549;stroke-width:0.336838;stroke-dashoffset:7.62353"
       id="path24255-8"
       cx="-80.920624"
       cy="47.666531"
       r="7.499999" />
    <path
       style="fill:#e1e928;fill-opacity:1;stroke-width:0.753957;stroke-dashoffset:7.62353"
       d="m -51.76149,42.372967 -21.108274,7.98245 a 8.6249988,8.6249988 0 0 1 -6.80734,6.04408 h 30.530954 a 39.999999,39.999999 0 0 0 -2.61534,-14.02653 z"
       id="path66210-9" />
    <path
       style="fill:#fc09cb;fill-opacity:1;stroke-width:0.753957;stroke-dashoffset:7.62353"
       d="m -59.755844,29.388227 -14.51952,13.39505 a 8.6249988,8.6249988 0 0 1 1.77405,5.11855 8.6249988,8.6249988 0 0 1 -0.19637,1.38648 l 20.597194,-7.78919 a 39.999999,39.999999 0 0 0 -7.655354,-12.11089 z"
       id="path66208-6" />
    <path
       style="fill:#1b1de7;fill-opacity:1;stroke-width:0.753957;stroke-dashoffset:7.62353"
       d="m -73.025314,19.832737 -8.48889,19.47168 a 8.6249988,8.6249988 0 0 1 0.38758,-0.0274 8.6249988,8.6249988 0 0 1 6.27817,2.75952 l 14.48335,-13.36196 a 39.999999,39.999999 0 0 0 -12.66021,-8.84184 z"
       id="path66206-2" />
    <path
       style="fill:#06ff1a;fill-opacity:1;stroke-width:0.753957;stroke-dashoffset:7.62353"
       d="m -89.144224,16.433457 a 39.999999,39.999999 0 0 0 -0.48318,0.0181 v 30.01781 a 8.6249988,8.6249988 0 0 1 7.04092,-7.0528 l 8.69404,-19.94091 a 39.999999,39.999999 0 0 0 -15.25178,-3.04219 z"
       id="path24640-1-3" />
    <path
       id="path76248-2"
       style="fill:#f43c01;fill-opacity:0.972549;stroke-width:0.207304;stroke-dashoffset:7.62353"
       inkscape:transform-center-x="-0.019593246"
       inkscape:transform-center-y="0.85057054"
       d="m -112.51491,44.405577 3.06421,-5.17151 -1.18919,-0.0135 -1.83359,3.09472 -1.7632,-3.13522 -1.22469,-0.0139 z" />
  </g>
</svg>
